<svg width="45" height="45" viewBox="0 0 45 45" fill="none" xmlns="http://www.w3.org/2000/svg">
<path fill-rule="evenodd" clip-rule="evenodd" d="M13.3102 23.2594C13.8586 23.8079 14.7487 23.8079 15.2986 23.2594L21.0938 17.4516V32.3438C21.0938 33.1172 21.7223 33.75 22.5 33.75C23.2777 33.75 23.9062 33.1172 23.9062 32.3438V17.4516L29.7014 23.2594C30.2513 23.8079 31.1428 23.8079 31.6898 23.2594C32.2397 22.6969 32.2397 21.8109 31.6898 21.2625L23.7361 13.3031C23.3986 12.9656 22.9373 12.8671 22.5 12.9515C22.0627 12.8671 21.6014 12.9656 21.2639 13.3031L13.3102 21.2625C12.7603 21.8109 12.7603 22.6969 13.3102 23.2594ZM22.5 0C34.927 0 45 10.0687 45 22.5C45 34.9313 34.927 45 22.5 45C10.073 45 0 34.9313 0 22.5C0 10.0687 10.073 0 22.5 0Z" fill="white"/>
</svg>
