<svg width="34" height="31" viewBox="0 0 34 31" fill="none" xmlns="http://www.w3.org/2000/svg">
<path d="M1.29028 24.5484C1.29028 24.5484 9.99886 9.29867 21.2944 1.38277C21.8134 1.01881 22.3658 0.69553 22.9501 0.42414C24.2471 -0.178249 25.9089 -0.627761 23.259 2.66329C19.6629 7.12965 10.7707 16.4355 11.7557 20.608C11.863 21.0624 12.3867 21.331 12.8745 21.1802C15.4739 20.3787 24.3303 17.9537 31.4813 19.6466C31.4813 19.6466 34.9925 20.7272 30.6246 22.04C30.6246 22.04 11.7876 25.242 4.21804 29.3058C3.79401 29.533 3.34352 29.7182 2.86892 29.8395C1.22648 30.2588 -1.70127 30.3767 1.29028 24.5491V24.5484Z" fill="white"/>
<path d="M24.0097 5.11789C24.0097 5.11789 25.3562 5.11789 26.2841 10.4697C26.3035 10.5825 26.4555 10.6288 26.5462 10.5496C27.5113 9.70753 31.4726 6.43041 33.6617 7.38396C33.6617 7.38396 35.3323 7.97151 31.2485 14.4353C31.2485 14.4353 28.6501 18.3806 27.4431 18.3806C27.4431 18.3806 26.6415 18.3806 27.9167 14.4374C27.9516 14.3308 27.9873 14.2235 28.0276 14.1184C28.0997 13.9298 28.8346 12.0605 26.7934 13.4278C26.3175 13.7468 24.7337 15.2598 24.1314 15.7653C23.9128 15.949 23.65 16.0872 23.3608 16.151C22.9616 16.2393 22.4841 16.1979 22.4314 15.5263C22.4314 15.5263 22.2461 15.0228 23.174 12.7561C23.174 12.7561 23.7306 11.6651 22.2461 12.3361C20.9554 12.9194 16.722 17.6234 15.6344 18.8461C15.3615 19.1532 15.0476 19.4281 14.6917 19.6552C13.9879 20.1047 13.0344 20.4321 13.3359 18.6316C13.8003 15.8614 21.8748 5.03305 24.0089 5.11719L24.0097 5.11789Z" fill="white"/>
</svg>
