<svg width="459" height="276" viewBox="0 0 459 276" fill="none" xmlns="http://www.w3.org/2000/svg">
<g clip-path="url(#clip0_183_215)">
<path d="M329.413 61.9433C332.386 70.8708 343.411 84.0983 343.411 84.0983C355.6 96.5711 355.564 96.6471 354.995 101.901C353.636 114.42 363.314 116.07 363.314 116.07C363.314 116.07 371.147 118.545 376.726 115.409C382.304 112.273 386.161 114.292 386.161 114.292C391.478 117.989 399.614 112.694 399.614 112.694C410.871 105.481 413.363 96.3195 413.802 91.1713C414.063 88.135 414.87 85.1747 416.247 82.4485C421.297 72.4328 420.834 70.5841 420.834 70.5841C420.834 70.5841 421.588 66.4714 419.962 50.582C418.336 34.6926 403.192 34.014 403.192 34.014C397.709 32.8088 392.813 31.2234 392.813 31.2234C384.41 26.6543 377.669 30.5448 377.669 30.5448C372.014 33.0721 364.418 29.948 364.418 29.948C364.418 29.948 353.689 26.8883 344.503 33.856C335.305 40.8296 329.086 48.9907 329.086 48.9907C329.086 48.9907 326.44 53.0157 329.413 61.9433ZM386.036 106.879C386.036 106.879 379.716 111.647 375.877 105.92C375.877 105.92 369.99 101.386 374.5 94.6522C374.5 94.6522 384.677 82.9107 385.383 80.9742C386.09 79.0319 387.573 75.7675 391.555 82.7176C391.555 82.7176 396.237 97.9401 386.03 106.879H386.036ZM335.097 51.9861C335.097 51.9861 335.964 48.7918 346.26 41.3853C356.561 33.9789 365.528 39.0979 365.528 39.0979C372.471 41.9879 377.408 43.8776 383.259 40.3966C389.11 36.9216 393.353 38.273 393.353 38.273C404.474 39.4314 408.301 47.6335 408.301 47.6335C410.426 50.4474 411.826 61.5864 412.467 67.8345C412.758 70.7128 412.485 73.6146 411.66 76.3876C410.259 81.0912 408.39 86.9064 408.39 86.9064C408.283 101.456 401.305 105.996 401.305 105.996C387.971 114.999 396.118 99.4962 396.118 99.4962C400.284 92.5051 396.819 74.3576 396.819 74.3576C395.098 62.8091 390.914 64.5408 390.914 64.5408L385.348 65.2019C385.348 65.2019 381.402 66.29 376.654 59.9308C371.907 53.5715 360.146 51.4888 360.146 51.4888C337.803 45.7848 353.535 77.0194 353.535 77.0194C358.039 88.2403 368.358 80.2137 368.358 80.2137C368.358 80.2137 379.022 72.4562 378.868 78.0432C378.714 83.6361 372.489 88.6908 372.489 88.6908C372.489 88.6908 368.946 95.2957 361.398 90.0071C359.042 88.3573 357.451 87.2165 356.377 86.4325C355.072 85.479 353.731 84.5722 352.354 83.7239C346.444 80.0967 341.352 72.2807 341.352 72.2807C331.021 57.1109 335.097 51.9861 335.097 51.9861ZM373.812 65.313C373.812 65.313 373.313 77.154 360.988 76.4461C360.988 76.4461 356.294 75.4106 356.039 67.4191C355.778 59.4335 361.415 59.3808 361.415 59.3808C361.415 59.3808 372.014 57.7661 373.812 65.3072V65.313Z" fill="#EFEFEF"/>
</g>
<g clip-path="url(#clip1_183_215)">
<path d="M20.4957 109.264C16.2981 95.4463 12.5202 83.6504 4.34293 71.5109C0.718439 66.1164 -1.14628 57.6611 0.7588 50.1408C2.17954 44.5226 5.97355 37.1301 10.4053 37.1301C15.168 37.1301 19.6724 41.9013 19.6724 46.3926C19.8984 50.6603 19.1961 54.3525 16.4192 59.9388C13.6988 65.4052 21.5694 72.0703 23.2726 78.256C24.8629 85.001 22.6188 91.85 22.5461 98.8189C22.5058 102.567 22.8852 105.556 25.2665 105.556C27.8739 105.556 28.0999 102.295 28.0999 99.3783C28.0999 91.85 30.4813 84.6574 33.4357 78.4797C35.8171 74.1002 39.046 71.2072 38.7716 64.6619C38.5859 60.2824 34.3479 55.783 33.1048 51.2916C32.2007 48.7103 31.5952 46.4965 31.5952 43.8033C31.5952 39.3119 36.1642 34.333 40.3699 34.333C46.6098 34.333 50.5814 42.4207 50.5814 49.5015C50.5814 53.881 48.9589 63.8467 47.4817 67.7787C42.945 78.1121 45.0196 81.7883 42.1862 93.2486C40.4829 99.2025 34.2833 105.5 32.354 111.222C31.4499 113.468 26.6388 114.555 24.7095 114.555C22.3282 114.555 21.303 111.63 20.5119 109.272L20.4957 109.264ZM50.3877 100.777C50.3877 90.5554 55.9496 84.7133 55.9496 74.8195C55.8366 66.508 50.6137 58.4123 50.6137 49.8771C50.6137 40.4388 58.67 32.9105 66.6132 33.5818C76.1466 33.5818 86.1321 43.132 86.1321 53.5773C86.1321 59.4193 82.8386 64.3662 82.8386 70.0963C82.8386 78.7515 92.3721 81.109 92.2591 89.0849C92.3721 104.365 76.2596 115.49 64.9099 115.49C56.5146 115.49 50.3796 109.424 50.3796 100.769L50.3877 100.777ZM79.2383 96.4773C84.2432 94.1916 76.8731 73.4849 76.8731 66.524C76.8731 59.5631 81.3695 57.6371 81.3695 51.0119C81.3695 44.3867 74.1124 45.8092 67.4123 44.059C62.4478 42.7644 56.5389 49.5414 56.5389 54.824C56.5389 62.3523 67.4123 60.3064 67.4123 68.3941C67.4123 77.273 58.0968 87.6383 58.0968 96.0617C58.0968 99.4342 59.4611 101.68 61.2773 101.68C65.814 101.68 73.0872 99.2824 79.2303 96.4773H79.2383ZM94.8584 100.929C94.8584 90.1398 100.695 69.8486 100.743 68.5219C100.985 62.2084 99.7906 55.9189 97.1832 50.1568C96.1257 47.8152 95.3104 45.4097 95.3104 42.2769C95.3104 37.1062 98.717 34.9724 102.237 34.9724C106.773 34.9724 110.632 38.1211 110.632 42.6125C110.632 48.7902 108.073 63.7029 106.999 67.3312C105.756 71.5349 105.183 75.4189 105.183 79.7984C105.183 86.991 110.519 94.1836 110.745 101.704C110.745 108.105 108.024 114.067 103.254 114.067C98.1438 114.067 94.8584 107.098 94.8584 100.921V100.929ZM124.218 109.136C124.218 103.406 127.196 78.264 123.055 71.423C120.367 66.9955 120.496 45.8332 121.271 42.3967C122.062 38.8883 123.523 37.8574 126.082 35.4679C130.102 31.7197 133.985 32.4709 138.191 32.4709C142.397 32.4709 150.098 33.0783 154.077 34.7166C163.159 38.4648 164.846 40.3748 164.846 48.5744C164.846 52.9539 162.69 57.9008 162.69 63.0715C162.803 70.7117 165.758 78.3519 165.758 85.8801C165.758 103.294 149.759 117 132.96 117C127.172 117 124.218 113.74 124.218 109.136ZM153.835 86.4396C153.835 78.6875 149.185 76.1062 149.185 69.5849C149.185 67.2273 152.568 51.3156 151.099 47.7992C149.193 43.2439 137.206 41.3978 133.525 41.4937C129.892 41.5896 127.673 49.8451 128.351 51.1957C127.931 57.1576 129.828 60.9058 130.772 66.9875C132.459 77.8564 135.971 83.2189 135.971 88.0459C135.971 92.873 138.546 96.0537 142.59 98.3394C147.886 101.336 153.843 94.6312 153.843 86.4316L153.835 86.4396ZM155.046 15.8799C156.475 20.1795 161.762 26.557 161.762 26.557C167.615 32.5668 167.598 32.6068 167.324 35.1402C166.67 41.174 171.32 41.9732 171.32 41.9732C171.32 41.9732 175.082 43.164 177.754 41.6535C180.425 40.1431 182.282 41.1181 182.282 41.1181C184.833 42.9002 188.74 40.3508 188.74 40.3508C194.14 36.8744 195.335 32.4549 195.553 29.9775C195.674 28.515 196.07 27.0845 196.724 25.7738C199.145 20.9467 198.927 20.0597 198.927 20.0597C198.927 20.0597 199.291 18.0777 198.508 10.4215C197.725 2.76539 190.459 2.43773 190.459 2.43773C187.828 1.85433 185.479 1.09511 185.479 1.09511C181.443 -1.11063 178.214 0.767444 178.214 0.767444C175.501 1.9822 171.853 0.479739 171.853 0.479739C171.853 0.479739 166.702 -0.990753 162.295 2.3658C157.887 5.72236 154.901 9.65433 154.901 9.65433C154.901 9.65433 153.633 11.5963 155.054 15.8959L155.046 15.8799ZM182.218 37.5377C182.218 37.5377 179.182 39.8394 177.342 37.0742C177.342 37.0742 174.516 34.8924 176.68 31.6478C176.68 31.6478 181.564 25.9896 181.903 25.0545C182.242 24.1195 182.952 22.5451 184.865 25.8937C184.865 25.8937 187.109 33.2301 182.218 37.5377ZM157.774 11.0769C157.774 11.0769 158.186 9.53445 163.134 5.97011C168.075 2.39777 172.385 4.86724 172.385 4.86724C175.719 6.25781 178.084 7.16888 180.894 5.4906C183.703 3.81232 185.737 4.46765 185.737 4.46765C191.073 5.02707 192.913 8.98302 192.913 8.98302C193.931 10.3416 194.609 15.7041 194.915 18.717C195.053 20.0996 194.923 21.5062 194.528 22.8408C193.858 25.1105 192.954 27.9076 192.954 27.9076C192.905 34.9244 189.555 37.1062 189.555 37.1062C183.154 41.4457 187.069 33.9734 187.069 33.9734C189.071 30.6008 187.4 21.8578 187.4 21.8578C186.577 16.2875 184.567 17.1267 184.567 17.1267L181.895 17.4463C181.895 17.4463 179.998 17.9738 177.721 14.9049C175.445 11.8441 169.794 10.8371 169.794 10.8371C159.074 8.08794 166.622 23.1445 166.622 23.1445C168.785 28.5549 173.733 24.6789 173.733 24.6789C173.733 24.6789 178.851 20.9388 178.779 23.632C178.706 26.3252 175.719 28.7627 175.719 28.7627C175.719 28.7627 174.016 31.9435 170.392 29.3941C169.261 28.5949 168.495 28.0515 167.986 27.6679C167.364 27.2043 166.719 26.7728 166.057 26.3652C163.223 24.615 160.777 20.8508 160.777 20.8508C155.821 13.5383 157.782 11.0689 157.782 11.0689L157.774 11.0769ZM176.349 17.5023C176.349 17.5023 176.107 23.2084 170.198 22.8648C170.198 22.8648 167.946 22.3613 167.824 18.5172C167.695 14.6652 170.408 14.6412 170.408 14.6412C170.408 14.6412 175.493 13.866 176.357 17.5023H176.349Z" fill="#EFEFEF"/>
</g>
<g clip-path="url(#clip2_183_215)">
<path d="M80.1116 193H4.50015C2.01478 193 0 194.976 0 197.414L0 271.586C0 274.024 2.01478 276 4.50015 276H80.1116C82.597 276 84.6117 274.024 84.6117 271.586V197.414C84.6117 194.976 82.597 193 80.1116 193Z" fill="#68773D"/>
<path d="M173.709 193H98.0972C95.6119 193 93.5971 194.976 93.5971 197.414V271.586C93.5971 274.024 95.6119 276 98.0972 276H173.709C176.194 276 178.209 274.024 178.209 271.586V197.414C178.209 194.976 176.194 193 173.709 193Z" fill="#7A5C61"/>
<path d="M267.306 193H191.694C189.209 193 187.194 194.976 187.194 197.414V271.586C187.194 274.024 189.209 276 191.694 276H267.306C269.791 276 271.806 274.024 271.806 271.586V197.414C271.806 194.976 269.791 193 267.306 193Z" fill="#513F2D"/>
<path d="M360.903 193H285.291C282.806 193 280.791 194.976 280.791 197.414V271.586C280.791 274.024 282.806 276 285.291 276H360.903C363.388 276 365.403 274.024 365.403 271.586V197.414C365.403 194.976 363.388 193 360.903 193Z" fill="#F28123"/>
<path d="M454.5 193H378.888C376.403 193 374.388 194.976 374.388 197.414V271.586C374.388 274.024 376.403 276 378.888 276H454.5C456.985 276 459 274.024 459 271.586V197.414C459 194.976 456.985 193 454.5 193Z" fill="#BC4749"/>
</g>
<defs>
<clipPath id="clip0_183_215">
<rect width="93" height="88" fill="white" transform="translate(328 29)"/>
</clipPath>
<clipPath id="clip1_183_215">
<rect width="199" height="117" fill="white"/>
</clipPath>
<clipPath id="clip2_183_215">
<rect width="459" height="83" fill="white" transform="translate(0 193)"/>
</clipPath>
</defs>
</svg>
