<svg width="1440" height="74" viewBox="0 0 1440 74" fill="none" xmlns="http://www.w3.org/2000/svg">
<rect width="1440" height="74" fill="#8C52FF"/>
<path d="M-54.3351 45.408C-58.1991 45.408 -60.9351 42.576 -60.9351 38.4C-60.9351 34.2 -58.1991 31.368 -54.3351 31.368C-51.9831 31.368 -49.6791 32.424 -48.6231 35.136L-50.1831 35.736C-50.8311 33.936 -52.4151 32.856 -54.4071 32.856C-57.3591 32.856 -59.2071 35.256 -59.2071 38.4C-59.2071 41.712 -57.1671 43.92 -54.2871 43.92C-51.9111 43.92 -50.3031 42.432 -49.5351 40.488L-48.0711 41.016C-49.1031 43.896 -51.4791 45.408 -54.3351 45.408ZM-39.6855 45.408C-43.5975 45.408 -46.3335 42.528 -46.3335 38.4C-46.3335 34.272 -43.5975 31.368 -39.6855 31.368C-35.7975 31.368 -33.0855 34.272 -33.0855 38.4C-33.0855 42.528 -35.7975 45.408 -39.6855 45.408ZM-39.6855 43.92C-36.7815 43.92 -34.7895 41.64 -34.7895 38.4C-34.7895 35.16 -36.7815 32.856 -39.6855 32.856C-42.5895 32.856 -44.6055 35.16 -44.6055 38.4C-44.6055 41.64 -42.5895 43.92 -39.6855 43.92ZM-29.8327 45V25.8H-28.2247V45H-29.8327ZM-23.9499 45V25.8H-22.3419V45H-23.9499ZM-14.8751 45.408C-17.1311 45.408 -19.0751 44.28 -19.0751 41.952C-19.0751 39.456 -16.8431 38.424 -14.2991 37.896C-11.8271 37.392 -10.0991 37.344 -10.0991 35.64C-10.0991 34.152 -11.4191 32.76 -13.4591 32.76C-15.2351 32.76 -16.5551 33.864 -17.0591 35.544L-18.6191 34.992C-17.8271 32.448 -15.5471 31.368 -13.3391 31.368C-10.9391 31.368 -8.41912 32.64 -8.41912 35.784V40.848C-8.41912 43.056 -8.25112 43.968 -7.98712 45H-9.61912C-9.85912 44.088 -10.0031 43.272 -9.71512 41.928H-9.97912C-10.8191 44.064 -12.4511 45.408 -14.8751 45.408ZM-14.6351 44.088C-11.8031 44.088 -10.0751 41.472 -10.0751 39.696V37.704C-10.7951 38.448 -11.4191 38.688 -13.2191 39.024C-14.7311 39.312 -17.3231 39.864 -17.3231 41.904C-17.3231 43.272 -16.2191 44.088 -14.6351 44.088ZM2.36269 45.408C0.178688 45.408 -1.69331 44.28 -2.70131 42.024H-2.96531C-2.67731 43.224 -2.74931 44.112 -2.74931 45H-4.30931V25.8H-2.70131C-2.70131 28.656 -2.60531 31.512 -2.89331 34.968H-2.60531C-1.50131 32.376 0.394688 31.368 2.41069 31.368C5.91469 31.368 8.50669 34.296 8.50669 38.376C8.50669 42.576 5.79469 45.408 2.36269 45.408ZM2.09869 43.92C4.81069 43.92 6.77869 41.568 6.77869 38.376C6.77869 35.184 4.78669 32.856 2.09869 32.856C-0.541312 32.856 -2.70131 35.136 -2.70131 38.4C-2.70131 41.688 -0.517312 43.92 2.09869 43.92ZM17.3614 45.408C13.4494 45.408 10.7134 42.528 10.7134 38.4C10.7134 34.272 13.4494 31.368 17.3614 31.368C21.2494 31.368 23.9614 34.272 23.9614 38.4C23.9614 42.528 21.2494 45.408 17.3614 45.408ZM17.3614 43.92C20.2654 43.92 22.2574 41.64 22.2574 38.4C22.2574 35.16 20.2654 32.856 17.3614 32.856C14.4574 32.856 12.4414 35.16 12.4414 38.4C12.4414 41.64 14.4574 43.92 17.3614 43.92ZM27.2141 45V31.752H28.7741C28.7741 32.664 28.8701 33.6 28.6061 35.064H28.8701C29.5421 32.64 31.2221 31.368 33.1661 31.368C33.6221 31.368 34.1981 31.44 34.6781 31.632V33.384C34.1981 33.168 33.4541 33.072 33.0461 33.072C30.2141 33.072 28.8221 35.88 28.8221 38.568V45H27.2141ZM39.828 45.408C37.572 45.408 35.628 44.28 35.628 41.952C35.628 39.456 37.86 38.424 40.404 37.896C42.876 37.392 44.604 37.344 44.604 35.64C44.604 34.152 43.284 32.76 41.244 32.76C39.468 32.76 38.148 33.864 37.644 35.544L36.084 34.992C36.876 32.448 39.156 31.368 41.364 31.368C43.764 31.368 46.284 32.64 46.284 35.784V40.848C46.284 43.056 46.452 43.968 46.716 45H45.084C44.844 44.088 44.7 43.272 44.988 41.928H44.724C43.884 44.064 42.252 45.408 39.828 45.408ZM40.068 44.088C42.9 44.088 44.628 41.472 44.628 39.696V37.704C43.908 38.448 43.284 38.688 41.484 39.024C39.972 39.312 37.38 39.864 37.38 41.904C37.38 43.272 38.484 44.088 40.068 44.088ZM54.2617 45.408C51.0218 45.408 51.0218 42.552 51.0218 41.016C51.0218 38.424 51.0218 35.832 51.3098 32.928C50.1338 33.192 49.2698 33.192 48.3818 33.192V31.752C49.2698 31.752 50.1338 31.752 51.3098 32.016C51.0218 30.432 51.0218 29.112 51.0218 27.816H52.6538C52.6538 29.112 52.6538 30.432 52.3658 32.016C54.0218 31.752 55.3418 31.752 56.6858 31.752V33.192C55.3418 33.192 54.0218 33.192 52.3658 32.928C52.6538 35.664 52.6538 38.112 52.6538 40.56C52.6538 42.048 52.6538 43.944 54.5258 43.944C55.1258 43.944 55.8698 43.776 56.6858 43.224V44.76C56.0138 45.192 55.1018 45.408 54.2617 45.408ZM59.3938 45V31.752H61.0018V45H59.3938ZM60.2338 28.392C59.4418 28.392 58.8658 27.792 58.8658 27.024C58.8658 26.304 59.4418 25.704 60.2338 25.704C60.9778 25.704 61.5538 26.304 61.5538 27.024C61.5538 27.792 60.9778 28.392 60.2338 28.392ZM68.7806 45L63.5246 31.752H65.2766C66.7646 35.544 68.1806 39.24 69.5246 43.392H69.8366C71.1566 39.24 72.5726 35.52 74.0366 31.752H75.7646L70.5326 45H68.7806ZM83.6164 45.408C79.8484 45.408 77.0884 42.6 77.0884 38.4C77.0884 34.272 79.8004 31.368 83.5924 31.368C86.1124 31.368 89.6404 32.712 89.6404 38.016V38.736H78.8164C78.8884 41.952 80.9044 43.92 83.6884 43.92C85.9684 43.92 87.5524 42.432 88.2964 40.584L89.8324 41.136C88.8484 43.824 86.4724 45.408 83.6164 45.408ZM87.8884 37.128C87.8164 33.96 85.5604 32.904 83.5444 32.904C81.0244 32.904 79.2724 34.68 78.9124 37.128H87.8884ZM100.052 40.104L101.132 36.864L98.3724 34.848H101.78L102.836 31.632L103.892 34.848H107.3L104.516 36.864L105.62 40.104L102.836 38.088L100.052 40.104ZM121.06 45.408C118.444 45.408 116.332 43.92 115.612 41.688L117.124 41.208C117.796 42.888 119.452 44.016 121.084 44.016C122.188 44.016 124.084 43.464 124.084 41.616C124.084 40.104 122.692 39.648 121.3 39.264L120.028 38.904C118.756 38.544 116.236 37.752 116.236 35.064C116.236 32.544 118.54 31.368 120.604 31.368C122.884 31.368 124.708 32.784 125.308 34.608L123.748 35.136C123.316 33.912 122.188 32.76 120.46 32.76C118.972 32.76 117.868 33.6 117.868 34.92C117.868 36.6 119.644 37.2 120.94 37.584L122.188 37.944C123.604 38.352 125.788 39 125.788 41.4C125.788 43.656 123.868 45.408 121.06 45.408ZM132.684 45.408C129.444 45.408 129.444 42.552 129.444 41.016C129.444 38.424 129.444 35.832 129.732 32.928C128.556 33.192 127.692 33.192 126.804 33.192V31.752C127.692 31.752 128.556 31.752 129.732 32.016C129.444 30.432 129.444 29.112 129.444 27.816H131.076C131.076 29.112 131.076 30.432 130.788 32.016C132.444 31.752 133.764 31.752 135.108 31.752V33.192C133.764 33.192 132.444 33.192 130.788 32.928C131.076 35.664 131.076 38.112 131.076 40.56C131.076 42.048 131.076 43.944 132.948 43.944C133.548 43.944 134.292 43.776 135.108 43.224V44.76C134.436 45.192 133.524 45.408 132.684 45.408ZM137.816 45V31.752H139.376C139.376 32.664 139.472 33.6 139.208 35.064H139.472C140.144 32.64 141.824 31.368 143.768 31.368C144.224 31.368 144.8 31.44 145.28 31.632V33.384C144.8 33.168 144.056 33.072 143.648 33.072C140.816 33.072 139.424 35.88 139.424 38.568V45H137.816ZM150.43 45.408C148.174 45.408 146.23 44.28 146.23 41.952C146.23 39.456 148.462 38.424 151.006 37.896C153.478 37.392 155.206 37.344 155.206 35.64C155.206 34.152 153.886 32.76 151.846 32.76C150.07 32.76 148.75 33.864 148.246 35.544L146.686 34.992C147.478 32.448 149.758 31.368 151.966 31.368C154.366 31.368 156.886 32.64 156.886 35.784V40.848C156.886 43.056 157.054 43.968 157.318 45H155.686C155.446 44.088 155.302 43.272 155.59 41.928H155.326C154.486 44.064 152.854 45.408 150.43 45.408ZM150.67 44.088C153.502 44.088 155.23 41.472 155.23 39.696V37.704C154.51 38.448 153.886 38.688 152.086 39.024C150.574 39.312 147.982 39.864 147.982 41.904C147.982 43.272 149.086 44.088 150.67 44.088ZM164.863 45.408C161.623 45.408 161.623 42.552 161.623 41.016C161.623 38.424 161.623 35.832 161.911 32.928C160.735 33.192 159.871 33.192 158.983 33.192V31.752C159.871 31.752 160.735 31.752 161.911 32.016C161.623 30.432 161.623 29.112 161.623 27.816H163.255C163.255 29.112 163.255 30.432 162.967 32.016C164.623 31.752 165.943 31.752 167.287 31.752V33.192C165.943 33.192 164.623 33.192 162.967 32.928C163.255 35.664 163.255 38.112 163.255 40.56C163.255 42.048 163.255 43.944 165.127 43.944C165.727 43.944 166.471 43.776 167.287 43.224V44.76C166.615 45.192 165.703 45.408 164.863 45.408ZM175.304 45.408C171.536 45.408 168.776 42.6 168.776 38.4C168.776 34.272 171.488 31.368 175.28 31.368C177.8 31.368 181.328 32.712 181.328 38.016V38.736H170.504C170.576 41.952 172.592 43.92 175.376 43.92C177.656 43.92 179.24 42.432 179.984 40.584L181.52 41.136C180.536 43.824 178.16 45.408 175.304 45.408ZM179.576 37.128C179.504 33.96 177.248 32.904 175.232 32.904C172.712 32.904 170.96 34.68 170.6 37.128H179.576ZM175.784 30.024H174.344L177.224 25.44H179.432L175.784 30.024ZM190.307 50.664C187.571 50.664 185.363 49.632 184.331 46.8L185.819 46.272C186.443 48.048 187.835 49.248 190.307 49.248C192.635 49.248 194.819 48.024 194.819 43.68C194.819 43.008 194.867 42.288 195.059 41.712H194.771C193.739 43.872 191.867 44.976 189.779 44.976C186.179 44.976 183.635 42 183.635 38.136C183.635 34.176 186.323 31.368 189.779 31.368C191.891 31.368 193.835 32.784 194.747 34.968H195.035C194.867 33.768 194.867 32.76 194.867 31.752H196.427V43.368C196.427 48.792 193.835 50.664 190.307 50.664ZM190.019 43.488C192.659 43.488 194.843 41.184 194.843 38.112C194.843 35.04 192.659 32.856 190.019 32.856C187.307 32.856 185.339 35.16 185.339 38.136C185.339 41.136 187.355 43.488 190.019 43.488ZM200.699 45V31.752H202.307V45H200.699ZM201.539 28.392C200.747 28.392 200.171 27.792 200.171 27.024C200.171 26.304 200.747 25.704 201.539 25.704C202.283 25.704 202.859 26.304 202.859 27.024C202.859 27.792 202.283 28.392 201.539 28.392ZM216.757 50.28C216.757 47.664 216.685 45.048 216.973 42.072H216.685C215.581 44.376 213.733 45.408 211.669 45.408C208.141 45.408 205.549 42.456 205.549 38.376C205.549 34.176 208.285 31.368 211.717 31.368C213.829 31.368 215.749 32.472 216.781 34.848H217.069C216.781 33.552 216.805 32.664 216.805 31.752H218.365V50.28H216.757ZM211.957 43.92C214.597 43.92 216.757 41.64 216.757 38.376C216.757 35.088 214.573 32.856 211.957 32.856C209.245 32.856 207.277 35.208 207.277 38.4C207.277 41.592 209.269 43.92 211.957 43.92ZM227.196 45.408C224.844 45.408 222.444 44.064 222.444 40.056V31.752H224.052V39.432C224.052 42.816 225.852 43.92 227.604 43.92C230.268 43.92 231.708 41.424 231.708 39.24V31.752H233.316V40.848C233.316 43.08 233.484 43.968 233.748 45H232.116C231.876 44.04 231.732 43.248 232.02 41.976H231.732C230.748 44.52 229.116 45.408 227.196 45.408ZM243.109 45.408C239.341 45.408 236.581 42.6 236.581 38.4C236.581 34.272 239.293 31.368 243.085 31.368C245.605 31.368 249.133 32.712 249.133 38.016V38.736H238.309C238.381 41.952 240.397 43.92 243.181 43.92C245.461 43.92 247.045 42.432 247.789 40.584L249.325 41.136C248.341 43.824 245.965 45.408 243.109 45.408ZM247.381 37.128C247.309 33.96 245.053 32.904 243.037 32.904C240.517 32.904 238.765 34.68 238.405 37.128H247.381ZM259.545 40.104L260.625 36.864L257.865 34.848H261.273L262.329 31.632L263.385 34.848H266.793L264.009 36.864L265.113 40.104L262.329 38.088L259.545 40.104ZM276.449 45V31.752H278.057V45H276.449ZM277.289 28.392C276.497 28.392 275.921 27.792 275.921 27.024C275.921 26.304 276.497 25.704 277.289 25.704C278.033 25.704 278.609 26.304 278.609 27.024C278.609 27.792 278.033 28.392 277.289 28.392ZM282.331 45V31.752H283.891C283.891 32.616 283.891 33.456 283.555 34.632H283.843C284.995 32.208 286.723 31.368 288.619 31.368C290.971 31.368 293.443 32.688 293.443 36.696V45H291.835V37.416C291.835 34.104 290.131 32.856 288.187 32.856C285.475 32.856 283.939 35.256 283.939 37.608V45H282.331ZM303.087 45.408C299.223 45.408 296.487 42.576 296.487 38.4C296.487 34.2 299.223 31.368 303.087 31.368C305.439 31.368 307.743 32.424 308.799 35.136L307.239 35.736C306.591 33.936 305.007 32.856 303.015 32.856C300.063 32.856 298.215 35.256 298.215 38.4C298.215 41.712 300.255 43.92 303.135 43.92C305.511 43.92 307.119 42.432 307.887 40.488L309.351 41.016C308.319 43.896 305.943 45.408 303.087 45.408ZM315.312 45.408C313.056 45.408 311.112 44.28 311.112 41.952C311.112 39.456 313.344 38.424 315.888 37.896C318.36 37.392 320.088 37.344 320.088 35.64C320.088 34.152 318.768 32.76 316.728 32.76C314.952 32.76 313.632 33.864 313.128 35.544L311.568 34.992C312.36 32.448 314.64 31.368 316.848 31.368C319.248 31.368 321.768 32.64 321.768 35.784V40.848C321.768 43.056 321.936 43.968 322.2 45H320.568C320.328 44.088 320.184 43.272 320.472 41.928H320.208C319.368 44.064 317.736 45.408 315.312 45.408ZM315.552 44.088C318.384 44.088 320.112 41.472 320.112 39.696V37.704C319.392 38.448 318.768 38.688 316.968 39.024C315.456 39.312 312.864 39.864 312.864 41.904C312.864 43.272 313.968 44.088 315.552 44.088ZM325.878 45V31.752H327.438C327.438 32.664 327.534 33.6 327.27 35.064H327.534C328.206 32.64 329.886 31.368 331.83 31.368C332.286 31.368 332.862 31.44 333.342 31.632V33.384C332.862 33.168 332.118 33.072 331.71 33.072C328.878 33.072 327.486 35.88 327.486 38.568V45H325.878ZM335.722 45V31.752H337.282C337.282 32.616 337.282 33.456 336.946 34.632H337.234C338.386 32.208 340.114 31.368 342.01 31.368C344.362 31.368 346.834 32.688 346.834 36.696V45H345.226V37.416C345.226 34.104 343.522 32.856 341.578 32.856C338.866 32.856 337.33 35.256 337.33 37.608V45H335.722ZM356.405 45.408C352.637 45.408 349.877 42.6 349.877 38.4C349.877 34.272 352.589 31.368 356.381 31.368C358.901 31.368 362.429 32.712 362.429 38.016V38.736H351.605C351.677 41.952 353.693 43.92 356.477 43.92C358.757 43.92 360.341 42.432 361.085 40.584L362.621 41.136C361.637 43.824 359.261 45.408 356.405 45.408ZM360.677 37.128C360.605 33.96 358.349 32.904 356.333 32.904C353.813 32.904 352.061 34.68 351.701 37.128H360.677ZM356.885 30.024H355.445L358.325 25.44H360.533L356.885 30.024ZM371.265 45.408C367.497 45.408 364.737 42.6 364.737 38.4C364.737 34.272 367.449 31.368 371.241 31.368C373.761 31.368 377.289 32.712 377.289 38.016V38.736H366.465C366.537 41.952 368.553 43.92 371.337 43.92C373.617 43.92 375.201 42.432 375.945 40.584L377.481 41.136C376.497 43.824 374.121 45.408 371.265 45.408ZM375.537 37.128C375.465 33.96 373.209 32.904 371.193 32.904C368.673 32.904 366.921 34.68 366.561 37.128H375.537ZM387.701 40.104L388.781 36.864L386.021 34.848H389.429L390.485 31.632L391.541 34.848H394.949L392.165 36.864L393.269 40.104L390.485 38.088L387.701 40.104ZM410.173 45.408C406.309 45.408 403.573 42.576 403.573 38.4C403.573 34.2 406.309 31.368 410.173 31.368C412.525 31.368 414.829 32.424 415.885 35.136L414.325 35.736C413.677 33.936 412.093 32.856 410.101 32.856C407.149 32.856 405.301 35.256 405.301 38.4C405.301 41.712 407.341 43.92 410.221 43.92C412.597 43.92 414.205 42.432 414.973 40.488L416.437 41.016C415.405 43.896 413.029 45.408 410.173 45.408ZM424.822 45.408C420.91 45.408 418.174 42.528 418.174 38.4C418.174 34.272 420.91 31.368 424.822 31.368C428.71 31.368 431.422 34.272 431.422 38.4C431.422 42.528 428.71 45.408 424.822 45.408ZM424.822 43.92C427.726 43.92 429.718 41.64 429.718 38.4C429.718 35.16 427.726 32.856 424.822 32.856C421.918 32.856 419.902 35.16 419.902 38.4C419.902 41.64 421.918 43.92 424.822 43.92ZM434.675 45V25.8H436.283V45H434.675ZM440.558 45V25.8H442.166V45H440.558ZM449.633 45.408C447.377 45.408 445.433 44.28 445.433 41.952C445.433 39.456 447.665 38.424 450.209 37.896C452.681 37.392 454.409 37.344 454.409 35.64C454.409 34.152 453.089 32.76 451.049 32.76C449.273 32.76 447.953 33.864 447.449 35.544L445.889 34.992C446.681 32.448 448.961 31.368 451.169 31.368C453.569 31.368 456.089 32.64 456.089 35.784V40.848C456.089 43.056 456.257 43.968 456.521 45H454.889C454.649 44.088 454.505 43.272 454.793 41.928H454.529C453.689 44.064 452.057 45.408 449.633 45.408ZM449.873 44.088C452.705 44.088 454.433 41.472 454.433 39.696V37.704C453.713 38.448 453.089 38.688 451.289 39.024C449.777 39.312 447.185 39.864 447.185 41.904C447.185 43.272 448.289 44.088 449.873 44.088ZM466.871 45.408C464.687 45.408 462.815 44.28 461.807 42.024H461.543C461.831 43.224 461.759 44.112 461.759 45H460.199V25.8H461.807C461.807 28.656 461.903 31.512 461.615 34.968H461.903C463.007 32.376 464.903 31.368 466.919 31.368C470.423 31.368 473.015 34.296 473.015 38.376C473.015 42.576 470.303 45.408 466.871 45.408ZM466.607 43.92C469.319 43.92 471.286 41.568 471.286 38.376C471.286 35.184 469.295 32.856 466.607 32.856C463.967 32.856 461.807 35.136 461.807 38.4C461.807 41.688 463.991 43.92 466.607 43.92ZM481.869 45.408C477.957 45.408 475.221 42.528 475.221 38.4C475.221 34.272 477.957 31.368 481.869 31.368C485.757 31.368 488.469 34.272 488.469 38.4C488.469 42.528 485.757 45.408 481.869 45.408ZM481.869 43.92C484.773 43.92 486.765 41.64 486.765 38.4C486.765 35.16 484.773 32.856 481.869 32.856C478.965 32.856 476.949 35.16 476.949 38.4C476.949 41.64 478.965 43.92 481.869 43.92ZM491.722 45V31.752H493.282C493.282 32.664 493.378 33.6 493.114 35.064H493.378C494.05 32.64 495.73 31.368 497.674 31.368C498.13 31.368 498.706 31.44 499.186 31.632V33.384C498.706 33.168 497.962 33.072 497.554 33.072C494.722 33.072 493.33 35.88 493.33 38.568V45H491.722ZM504.336 45.408C502.08 45.408 500.136 44.28 500.136 41.952C500.136 39.456 502.368 38.424 504.912 37.896C507.384 37.392 509.112 37.344 509.112 35.64C509.112 34.152 507.792 32.76 505.752 32.76C503.976 32.76 502.656 33.864 502.152 35.544L500.592 34.992C501.384 32.448 503.664 31.368 505.872 31.368C508.272 31.368 510.792 32.64 510.792 35.784V40.848C510.792 43.056 510.96 43.968 511.224 45H509.592C509.352 44.088 509.208 43.272 509.496 41.928H509.232C508.392 44.064 506.76 45.408 504.336 45.408ZM504.576 44.088C507.408 44.088 509.136 41.472 509.136 39.696V37.704C508.416 38.448 507.792 38.688 505.992 39.024C504.48 39.312 501.888 39.864 501.888 41.904C501.888 43.272 502.992 44.088 504.576 44.088ZM518.77 45.408C515.53 45.408 515.53 42.552 515.53 41.016C515.53 38.424 515.53 35.832 515.818 32.928C514.642 33.192 513.778 33.192 512.89 33.192V31.752C513.778 31.752 514.642 31.752 515.818 32.016C515.53 30.432 515.53 29.112 515.53 27.816H517.162C517.162 29.112 517.162 30.432 516.874 32.016C518.53 31.752 519.85 31.752 521.194 31.752V33.192C519.85 33.192 518.53 33.192 516.874 32.928C517.162 35.664 517.162 38.112 517.162 40.56C517.162 42.048 517.162 43.944 519.034 43.944C519.634 43.944 520.378 43.776 521.194 43.224V44.76C520.522 45.192 519.61 45.408 518.77 45.408ZM523.902 45V31.752H525.51V45H523.902ZM524.742 28.392C523.95 28.392 523.374 27.792 523.374 27.024C523.374 26.304 523.95 25.704 524.742 25.704C525.486 25.704 526.062 26.304 526.062 27.024C526.062 27.792 525.486 28.392 524.742 28.392ZM533.288 45L528.032 31.752H529.784C531.272 35.544 532.688 39.24 534.032 43.392H534.344C535.664 39.24 537.08 35.52 538.544 31.752H540.272L535.04 45H533.288ZM548.124 45.408C544.356 45.408 541.596 42.6 541.596 38.4C541.596 34.272 544.308 31.368 548.1 31.368C550.62 31.368 554.148 32.712 554.148 38.016V38.736H543.324C543.396 41.952 545.412 43.92 548.196 43.92C550.476 43.92 552.06 42.432 552.804 40.584L554.34 41.136C553.356 43.824 550.98 45.408 548.124 45.408ZM552.396 37.128C552.324 33.96 550.068 32.904 548.052 32.904C545.532 32.904 543.78 34.68 543.42 37.128H552.396ZM564.56 40.104L565.64 36.864L562.88 34.848H566.288L567.344 31.632L568.4 34.848H571.808L569.024 36.864L570.128 40.104L567.344 38.088L564.56 40.104ZM585.568 45.408C582.952 45.408 580.84 43.92 580.12 41.688L581.632 41.208C582.304 42.888 583.96 44.016 585.592 44.016C586.696 44.016 588.592 43.464 588.592 41.616C588.592 40.104 587.2 39.648 585.808 39.264L584.536 38.904C583.264 38.544 580.744 37.752 580.744 35.064C580.744 32.544 583.048 31.368 585.112 31.368C587.392 31.368 589.216 32.784 589.816 34.608L588.256 35.136C587.824 33.912 586.696 32.76 584.968 32.76C583.48 32.76 582.376 33.6 582.376 34.92C582.376 36.6 584.152 37.2 585.448 37.584L586.696 37.944C588.112 38.352 590.296 39 590.296 41.4C590.296 43.656 588.376 45.408 585.568 45.408ZM597.191 45.408C593.951 45.408 593.951 42.552 593.951 41.016C593.951 38.424 593.951 35.832 594.239 32.928C593.063 33.192 592.199 33.192 591.311 33.192V31.752C592.199 31.752 593.063 31.752 594.239 32.016C593.951 30.432 593.951 29.112 593.951 27.816H595.583C595.583 29.112 595.583 30.432 595.295 32.016C596.951 31.752 598.271 31.752 599.615 31.752V33.192C598.271 33.192 596.951 33.192 595.295 32.928C595.583 35.664 595.583 38.112 595.583 40.56C595.583 42.048 595.583 43.944 597.455 43.944C598.055 43.944 598.799 43.776 599.615 43.224V44.76C598.943 45.192 598.031 45.408 597.191 45.408ZM602.324 45V31.752H603.884C603.884 32.664 603.98 33.6 603.715 35.064H603.98C604.652 32.64 606.332 31.368 608.276 31.368C608.732 31.368 609.308 31.44 609.788 31.632V33.384C609.308 33.168 608.564 33.072 608.156 33.072C605.324 33.072 603.932 35.88 603.932 38.568V45H602.324ZM614.937 45.408C612.681 45.408 610.737 44.28 610.737 41.952C610.737 39.456 612.969 38.424 615.513 37.896C617.985 37.392 619.713 37.344 619.713 35.64C619.713 34.152 618.393 32.76 616.353 32.76C614.577 32.76 613.257 33.864 612.753 35.544L611.193 34.992C611.985 32.448 614.265 31.368 616.473 31.368C618.873 31.368 621.393 32.64 621.393 35.784V40.848C621.393 43.056 621.561 43.968 621.825 45H620.193C619.953 44.088 619.809 43.272 620.097 41.928H619.833C618.993 44.064 617.361 45.408 614.937 45.408ZM615.177 44.088C618.009 44.088 619.737 41.472 619.737 39.696V37.704C619.017 38.448 618.393 38.688 616.593 39.024C615.081 39.312 612.489 39.864 612.489 41.904C612.489 43.272 613.593 44.088 615.177 44.088ZM629.371 45.408C626.131 45.408 626.131 42.552 626.131 41.016C626.131 38.424 626.131 35.832 626.419 32.928C625.243 33.192 624.379 33.192 623.491 33.192V31.752C624.379 31.752 625.243 31.752 626.419 32.016C626.131 30.432 626.131 29.112 626.131 27.816H627.763C627.763 29.112 627.763 30.432 627.475 32.016C629.131 31.752 630.451 31.752 631.795 31.752V33.192C630.451 33.192 629.131 33.192 627.475 32.928C627.763 35.664 627.763 38.112 627.763 40.56C627.763 42.048 627.763 43.944 629.635 43.944C630.235 43.944 630.979 43.776 631.795 43.224V44.76C631.123 45.192 630.211 45.408 629.371 45.408ZM639.812 45.408C636.044 45.408 633.284 42.6 633.284 38.4C633.284 34.272 635.996 31.368 639.788 31.368C642.308 31.368 645.836 32.712 645.836 38.016V38.736H635.012C635.084 41.952 637.1 43.92 639.884 43.92C642.164 43.92 643.748 42.432 644.492 40.584L646.028 41.136C645.044 43.824 642.668 45.408 639.812 45.408ZM644.084 37.128C644.012 33.96 641.756 32.904 639.74 32.904C637.22 32.904 635.468 34.68 635.108 37.128H644.084ZM640.292 30.024H638.852L641.732 25.44H643.94L640.292 30.024ZM654.815 50.664C652.079 50.664 649.871 49.632 648.839 46.8L650.327 46.272C650.951 48.048 652.343 49.248 654.815 49.248C657.143 49.248 659.327 48.024 659.327 43.68C659.327 43.008 659.375 42.288 659.567 41.712H659.279C658.247 43.872 656.375 44.976 654.287 44.976C650.687 44.976 648.143 42 648.143 38.136C648.143 34.176 650.831 31.368 654.287 31.368C656.399 31.368 658.343 32.784 659.255 34.968H659.543C659.375 33.768 659.375 32.76 659.375 31.752H660.935V43.368C660.935 48.792 658.343 50.664 654.815 50.664ZM654.527 43.488C657.167 43.488 659.351 41.184 659.351 38.112C659.351 35.04 657.167 32.856 654.527 32.856C651.815 32.856 649.847 35.16 649.847 38.136C649.847 41.136 651.863 43.488 654.527 43.488ZM665.206 45V31.752H666.814V45H665.206ZM666.046 28.392C665.254 28.392 664.678 27.792 664.678 27.024C664.678 26.304 665.254 25.704 666.046 25.704C666.79 25.704 667.366 26.304 667.366 27.024C667.366 27.792 666.79 28.392 666.046 28.392ZM681.265 50.28C681.265 47.664 681.193 45.048 681.481 42.072H681.193C680.089 44.376 678.241 45.408 676.177 45.408C672.649 45.408 670.057 42.456 670.057 38.376C670.057 34.176 672.793 31.368 676.225 31.368C678.337 31.368 680.257 32.472 681.289 34.848H681.577C681.289 33.552 681.313 32.664 681.313 31.752H682.873V50.28H681.265ZM676.465 43.92C679.105 43.92 681.265 41.64 681.265 38.376C681.265 35.088 679.081 32.856 676.465 32.856C673.753 32.856 671.785 35.208 671.785 38.4C671.785 41.592 673.777 43.92 676.465 43.92ZM691.704 45.408C689.352 45.408 686.952 44.064 686.952 40.056V31.752H688.56V39.432C688.56 42.816 690.36 43.92 692.112 43.92C694.776 43.92 696.216 41.424 696.216 39.24V31.752H697.824V40.848C697.824 43.08 697.992 43.968 698.256 45H696.624C696.384 44.04 696.24 43.248 696.528 41.976H696.24C695.256 44.52 693.624 45.408 691.704 45.408ZM707.616 45.408C703.848 45.408 701.088 42.6 701.088 38.4C701.088 34.272 703.8 31.368 707.592 31.368C710.112 31.368 713.64 32.712 713.64 38.016V38.736H702.816C702.888 41.952 704.904 43.92 707.688 43.92C709.968 43.92 711.552 42.432 712.296 40.584L713.832 41.136C712.848 43.824 710.472 45.408 707.616 45.408ZM711.888 37.128C711.816 33.96 709.56 32.904 707.544 32.904C705.024 32.904 703.272 34.68 702.912 37.128H711.888ZM724.052 40.104L725.132 36.864L722.372 34.848H725.78L726.836 31.632L727.892 34.848H731.3L728.516 36.864L729.62 40.104L726.836 38.088L724.052 40.104ZM740.956 45V31.752H742.564V45H740.956ZM741.796 28.392C741.004 28.392 740.428 27.792 740.428 27.024C740.428 26.304 741.004 25.704 741.796 25.704C742.54 25.704 743.116 26.304 743.116 27.024C743.116 27.792 742.54 28.392 741.796 28.392ZM746.839 45V31.752H748.399C748.399 32.616 748.399 33.456 748.063 34.632H748.351C749.503 32.208 751.231 31.368 753.127 31.368C755.479 31.368 757.951 32.688 757.951 36.696V45H756.343V37.416C756.343 34.104 754.639 32.856 752.695 32.856C749.983 32.856 748.447 35.256 748.447 37.608V45H746.839ZM767.595 45.408C763.731 45.408 760.995 42.576 760.995 38.4C760.995 34.2 763.731 31.368 767.595 31.368C769.947 31.368 772.251 32.424 773.307 35.136L771.747 35.736C771.099 33.936 769.515 32.856 767.523 32.856C764.571 32.856 762.723 35.256 762.723 38.4C762.723 41.712 764.763 43.92 767.643 43.92C770.019 43.92 771.627 42.432 772.395 40.488L773.859 41.016C772.827 43.896 770.451 45.408 767.595 45.408ZM779.82 45.408C777.564 45.408 775.62 44.28 775.62 41.952C775.62 39.456 777.852 38.424 780.396 37.896C782.868 37.392 784.596 37.344 784.596 35.64C784.596 34.152 783.276 32.76 781.236 32.76C779.46 32.76 778.14 33.864 777.636 35.544L776.076 34.992C776.868 32.448 779.148 31.368 781.356 31.368C783.756 31.368 786.276 32.64 786.276 35.784V40.848C786.276 43.056 786.444 43.968 786.708 45H785.076C784.836 44.088 784.692 43.272 784.98 41.928H784.716C783.876 44.064 782.244 45.408 779.82 45.408ZM780.06 44.088C782.892 44.088 784.62 41.472 784.62 39.696V37.704C783.9 38.448 783.276 38.688 781.476 39.024C779.964 39.312 777.372 39.864 777.372 41.904C777.372 43.272 778.476 44.088 780.06 44.088ZM790.386 45V31.752H791.946C791.946 32.664 792.042 33.6 791.778 35.064H792.042C792.714 32.64 794.394 31.368 796.338 31.368C796.794 31.368 797.37 31.44 797.85 31.632V33.384C797.37 33.168 796.626 33.072 796.218 33.072C793.386 33.072 791.994 35.88 791.994 38.568V45H790.386ZM800.23 45V31.752H801.79C801.79 32.616 801.79 33.456 801.454 34.632H801.742C802.894 32.208 804.622 31.368 806.518 31.368C808.87 31.368 811.342 32.688 811.342 36.696V45H809.734V37.416C809.734 34.104 808.03 32.856 806.086 32.856C803.374 32.856 801.838 35.256 801.838 37.608V45H800.23ZM820.913 45.408C817.145 45.408 814.385 42.6 814.385 38.4C814.385 34.272 817.097 31.368 820.889 31.368C823.409 31.368 826.937 32.712 826.937 38.016V38.736H816.113C816.185 41.952 818.201 43.92 820.985 43.92C823.265 43.92 824.849 42.432 825.593 40.584L827.129 41.136C826.145 43.824 823.769 45.408 820.913 45.408ZM825.185 37.128C825.113 33.96 822.857 32.904 820.841 32.904C818.321 32.904 816.569 34.68 816.209 37.128H825.185ZM821.393 30.024H819.953L822.833 25.44H825.041L821.393 30.024ZM835.773 45.408C832.005 45.408 829.245 42.6 829.245 38.4C829.245 34.272 831.957 31.368 835.749 31.368C838.269 31.368 841.797 32.712 841.797 38.016V38.736H830.973C831.045 41.952 833.061 43.92 835.845 43.92C838.125 43.92 839.709 42.432 840.453 40.584L841.989 41.136C841.005 43.824 838.629 45.408 835.773 45.408ZM840.045 37.128C839.973 33.96 837.717 32.904 835.701 32.904C833.181 32.904 831.429 34.68 831.069 37.128H840.045ZM852.209 40.104L853.289 36.864L850.529 34.848H853.937L854.993 31.632L856.049 34.848H859.457L856.673 36.864L857.777 40.104L854.993 38.088L852.209 40.104ZM874.681 45.408C870.817 45.408 868.081 42.576 868.081 38.4C868.081 34.2 870.817 31.368 874.681 31.368C877.033 31.368 879.337 32.424 880.393 35.136L878.833 35.736C878.185 33.936 876.601 32.856 874.609 32.856C871.657 32.856 869.809 35.256 869.809 38.4C869.809 41.712 871.849 43.92 874.729 43.92C877.105 43.92 878.713 42.432 879.481 40.488L880.945 41.016C879.913 43.896 877.537 45.408 874.681 45.408ZM889.33 45.408C885.418 45.408 882.682 42.528 882.682 38.4C882.682 34.272 885.418 31.368 889.33 31.368C893.218 31.368 895.93 34.272 895.93 38.4C895.93 42.528 893.218 45.408 889.33 45.408ZM889.33 43.92C892.234 43.92 894.226 41.64 894.226 38.4C894.226 35.16 892.234 32.856 889.33 32.856C886.426 32.856 884.41 35.16 884.41 38.4C884.41 41.64 886.426 43.92 889.33 43.92ZM899.183 45V25.8H900.791V45H899.183ZM905.066 45V25.8H906.674V45H905.066ZM914.141 45.408C911.885 45.408 909.941 44.28 909.941 41.952C909.941 39.456 912.173 38.424 914.717 37.896C917.189 37.392 918.917 37.344 918.917 35.64C918.917 34.152 917.597 32.76 915.557 32.76C913.781 32.76 912.461 33.864 911.957 35.544L910.396 34.992C911.189 32.448 913.469 31.368 915.677 31.368C918.077 31.368 920.597 32.64 920.597 35.784V40.848C920.597 43.056 920.765 43.968 921.029 45H919.397C919.157 44.088 919.013 43.272 919.301 41.928H919.037C918.197 44.064 916.565 45.408 914.141 45.408ZM914.381 44.088C917.213 44.088 918.941 41.472 918.941 39.696V37.704C918.221 38.448 917.597 38.688 915.797 39.024C914.285 39.312 911.693 39.864 911.693 41.904C911.693 43.272 912.797 44.088 914.381 44.088ZM931.378 45.408C929.194 45.408 927.322 44.28 926.314 42.024H926.05C926.338 43.224 926.266 44.112 926.266 45H924.706V25.8H926.314C926.314 28.656 926.41 31.512 926.122 34.968H926.41C927.514 32.376 929.41 31.368 931.426 31.368C934.93 31.368 937.522 34.296 937.522 38.376C937.522 42.576 934.81 45.408 931.378 45.408ZM931.114 43.92C933.826 43.92 935.794 41.568 935.794 38.376C935.794 35.184 933.802 32.856 931.114 32.856C928.474 32.856 926.314 35.136 926.314 38.4C926.314 41.688 928.498 43.92 931.114 43.92ZM946.377 45.408C942.465 45.408 939.729 42.528 939.729 38.4C939.729 34.272 942.465 31.368 946.377 31.368C950.265 31.368 952.977 34.272 952.977 38.4C952.977 42.528 950.265 45.408 946.377 45.408ZM946.377 43.92C949.281 43.92 951.273 41.64 951.273 38.4C951.273 35.16 949.281 32.856 946.377 32.856C943.473 32.856 941.457 35.16 941.457 38.4C941.457 41.64 943.473 43.92 946.377 43.92ZM956.23 45V31.752H957.79C957.79 32.664 957.886 33.6 957.622 35.064H957.886C958.558 32.64 960.238 31.368 962.182 31.368C962.638 31.368 963.214 31.44 963.694 31.632V33.384C963.214 33.168 962.47 33.072 962.062 33.072C959.23 33.072 957.838 35.88 957.838 38.568V45H956.23ZM968.844 45.408C966.588 45.408 964.644 44.28 964.644 41.952C964.644 39.456 966.876 38.424 969.42 37.896C971.892 37.392 973.62 37.344 973.62 35.64C973.62 34.152 972.3 32.76 970.26 32.76C968.484 32.76 967.164 33.864 966.66 35.544L965.1 34.992C965.892 32.448 968.172 31.368 970.38 31.368C972.78 31.368 975.3 32.64 975.3 35.784V40.848C975.3 43.056 975.468 43.968 975.732 45H974.1C973.86 44.088 973.716 43.272 974.004 41.928H973.74C972.9 44.064 971.268 45.408 968.844 45.408ZM969.084 44.088C971.916 44.088 973.644 41.472 973.644 39.696V37.704C972.924 38.448 972.3 38.688 970.5 39.024C968.988 39.312 966.396 39.864 966.396 41.904C966.396 43.272 967.5 44.088 969.084 44.088ZM983.277 45.408C980.037 45.408 980.037 42.552 980.037 41.016C980.037 38.424 980.037 35.832 980.325 32.928C979.149 33.192 978.285 33.192 977.397 33.192V31.752C978.285 31.752 979.149 31.752 980.325 32.016C980.037 30.432 980.037 29.112 980.037 27.816H981.669C981.669 29.112 981.669 30.432 981.381 32.016C983.037 31.752 984.357 31.752 985.701 31.752V33.192C984.357 33.192 983.037 33.192 981.381 32.928C981.669 35.664 981.669 38.112 981.669 40.56C981.669 42.048 981.669 43.944 983.541 43.944C984.141 43.944 984.885 43.776 985.701 43.224V44.76C985.029 45.192 984.117 45.408 983.277 45.408ZM988.409 45V31.752H990.017V45H988.409ZM989.249 28.392C988.457 28.392 987.881 27.792 987.881 27.024C987.881 26.304 988.457 25.704 989.249 25.704C989.993 25.704 990.569 26.304 990.569 27.024C990.569 27.792 989.993 28.392 989.249 28.392ZM997.796 45L992.54 31.752H994.292C995.78 35.544 997.196 39.24 998.54 43.392H998.852C1000.17 39.24 1001.59 35.52 1003.05 31.752H1004.78L999.548 45H997.796ZM1012.63 45.408C1008.86 45.408 1006.1 42.6 1006.1 38.4C1006.1 34.272 1008.82 31.368 1012.61 31.368C1015.13 31.368 1018.66 32.712 1018.66 38.016V38.736H1007.83C1007.9 41.952 1009.92 43.92 1012.7 43.92C1014.98 43.92 1016.57 42.432 1017.31 40.584L1018.85 41.136C1017.86 43.824 1015.49 45.408 1012.63 45.408ZM1016.9 37.128C1016.83 33.96 1014.58 32.904 1012.56 32.904C1010.04 32.904 1008.29 34.68 1007.93 37.128H1016.9ZM1029.07 40.104L1030.15 36.864L1027.39 34.848H1030.8L1031.85 31.632L1032.91 34.848H1036.32L1033.53 36.864L1034.64 40.104L1031.85 38.088L1029.07 40.104ZM1050.08 45.408C1047.46 45.408 1045.35 43.92 1044.63 41.688L1046.14 41.208C1046.81 42.888 1048.47 44.016 1050.1 44.016C1051.2 44.016 1053.1 43.464 1053.1 41.616C1053.1 40.104 1051.71 39.648 1050.32 39.264L1049.04 38.904C1047.77 38.544 1045.25 37.752 1045.25 35.064C1045.25 32.544 1047.56 31.368 1049.62 31.368C1051.9 31.368 1053.72 32.784 1054.32 34.608L1052.76 35.136C1052.33 33.912 1051.2 32.76 1049.48 32.76C1047.99 32.76 1046.88 33.6 1046.88 34.92C1046.88 36.6 1048.66 37.2 1049.96 37.584L1051.2 37.944C1052.62 38.352 1054.8 39 1054.8 41.4C1054.8 43.656 1052.88 45.408 1050.08 45.408ZM1061.7 45.408C1058.46 45.408 1058.46 42.552 1058.46 41.016C1058.46 38.424 1058.46 35.832 1058.75 32.928C1057.57 33.192 1056.71 33.192 1055.82 33.192V31.752C1056.71 31.752 1057.57 31.752 1058.75 32.016C1058.46 30.432 1058.46 29.112 1058.46 27.816H1060.09C1060.09 29.112 1060.09 30.432 1059.8 32.016C1061.46 31.752 1062.78 31.752 1064.12 31.752V33.192C1062.78 33.192 1061.46 33.192 1059.8 32.928C1060.09 35.664 1060.09 38.112 1060.09 40.56C1060.09 42.048 1060.09 43.944 1061.96 43.944C1062.56 43.944 1063.31 43.776 1064.12 43.224V44.76C1063.45 45.192 1062.54 45.408 1061.7 45.408ZM1066.83 45V31.752H1068.39C1068.39 32.664 1068.49 33.6 1068.22 35.064H1068.49C1069.16 32.64 1070.84 31.368 1072.78 31.368C1073.24 31.368 1073.82 31.44 1074.3 31.632V33.384C1073.82 33.168 1073.07 33.072 1072.66 33.072C1069.83 33.072 1068.44 35.88 1068.44 38.568V45H1066.83ZM1079.45 45.408C1077.19 45.408 1075.25 44.28 1075.25 41.952C1075.25 39.456 1077.48 38.424 1080.02 37.896C1082.49 37.392 1084.22 37.344 1084.22 35.64C1084.22 34.152 1082.9 32.76 1080.86 32.76C1079.09 32.76 1077.77 33.864 1077.26 35.544L1075.7 34.992C1076.49 32.448 1078.77 31.368 1080.98 31.368C1083.38 31.368 1085.9 32.64 1085.9 35.784V40.848C1085.9 43.056 1086.07 43.968 1086.33 45H1084.7C1084.46 44.088 1084.32 43.272 1084.61 41.928H1084.34C1083.5 44.064 1081.87 45.408 1079.45 45.408ZM1079.69 44.088C1082.52 44.088 1084.25 41.472 1084.25 39.696V37.704C1083.53 38.448 1082.9 38.688 1081.1 39.024C1079.59 39.312 1077 39.864 1077 41.904C1077 43.272 1078.1 44.088 1079.69 44.088ZM1093.88 45.408C1090.64 45.408 1090.64 42.552 1090.64 41.016C1090.64 38.424 1090.64 35.832 1090.93 32.928C1089.75 33.192 1088.89 33.192 1088 33.192V31.752C1088.89 31.752 1089.75 31.752 1090.93 32.016C1090.64 30.432 1090.64 29.112 1090.64 27.816H1092.27C1092.27 29.112 1092.27 30.432 1091.98 32.016C1093.64 31.752 1094.96 31.752 1096.3 31.752V33.192C1094.96 33.192 1093.64 33.192 1091.98 32.928C1092.27 35.664 1092.27 38.112 1092.27 40.56C1092.27 42.048 1092.27 43.944 1094.14 43.944C1094.74 43.944 1095.49 43.776 1096.3 43.224V44.76C1095.63 45.192 1094.72 45.408 1093.88 45.408ZM1104.32 45.408C1100.55 45.408 1097.79 42.6 1097.79 38.4C1097.79 34.272 1100.5 31.368 1104.3 31.368C1106.82 31.368 1110.34 32.712 1110.34 38.016V38.736H1099.52C1099.59 41.952 1101.61 43.92 1104.39 43.92C1106.67 43.92 1108.26 42.432 1109 40.584L1110.54 41.136C1109.55 43.824 1107.18 45.408 1104.32 45.408ZM1108.59 37.128C1108.52 33.96 1106.26 32.904 1104.25 32.904C1101.73 32.904 1099.98 34.68 1099.62 37.128H1108.59ZM1104.8 30.024H1103.36L1106.24 25.44H1108.45L1104.8 30.024ZM1119.32 50.664C1116.59 50.664 1114.38 49.632 1113.35 46.8L1114.83 46.272C1115.46 48.048 1116.85 49.248 1119.32 49.248C1121.65 49.248 1123.83 48.024 1123.83 43.68C1123.83 43.008 1123.88 42.288 1124.07 41.712H1123.79C1122.75 43.872 1120.88 44.976 1118.79 44.976C1115.19 44.976 1112.65 42 1112.65 38.136C1112.65 34.176 1115.34 31.368 1118.79 31.368C1120.91 31.368 1122.85 32.784 1123.76 34.968H1124.05C1123.88 33.768 1123.88 32.76 1123.88 31.752H1125.44V43.368C1125.44 48.792 1122.85 50.664 1119.32 50.664ZM1119.03 43.488C1121.67 43.488 1123.86 41.184 1123.86 38.112C1123.86 35.04 1121.67 32.856 1119.03 32.856C1116.32 32.856 1114.35 35.16 1114.35 38.136C1114.35 41.136 1116.37 43.488 1119.03 43.488ZM1129.71 45V31.752H1131.32V45H1129.71ZM1130.55 28.392C1129.76 28.392 1129.19 27.792 1129.19 27.024C1129.19 26.304 1129.76 25.704 1130.55 25.704C1131.3 25.704 1131.87 26.304 1131.87 27.024C1131.87 27.792 1131.3 28.392 1130.55 28.392ZM1145.77 50.28C1145.77 47.664 1145.7 45.048 1145.99 42.072H1145.7C1144.6 44.376 1142.75 45.408 1140.68 45.408C1137.16 45.408 1134.56 42.456 1134.56 38.376C1134.56 34.176 1137.3 31.368 1140.73 31.368C1142.84 31.368 1144.76 32.472 1145.8 34.848H1146.08C1145.8 33.552 1145.82 32.664 1145.82 31.752H1147.38V50.28H1145.77ZM1140.97 43.92C1143.61 43.92 1145.77 41.64 1145.77 38.376C1145.77 35.088 1143.59 32.856 1140.97 32.856C1138.26 32.856 1136.29 35.208 1136.29 38.4C1136.29 41.592 1138.28 43.92 1140.97 43.92ZM1156.21 45.408C1153.86 45.408 1151.46 44.064 1151.46 40.056V31.752H1153.07V39.432C1153.07 42.816 1154.87 43.92 1156.62 43.92C1159.28 43.92 1160.72 41.424 1160.72 39.24V31.752H1162.33V40.848C1162.33 43.08 1162.5 43.968 1162.76 45H1161.13C1160.89 44.04 1160.75 43.248 1161.04 41.976H1160.75C1159.76 44.52 1158.13 45.408 1156.21 45.408ZM1172.12 45.408C1168.36 45.408 1165.6 42.6 1165.6 38.4C1165.6 34.272 1168.31 31.368 1172.1 31.368C1174.62 31.368 1178.15 32.712 1178.15 38.016V38.736H1167.32C1167.4 41.952 1169.41 43.92 1172.2 43.92C1174.48 43.92 1176.06 42.432 1176.8 40.584L1178.34 41.136C1177.36 43.824 1174.98 45.408 1172.12 45.408ZM1176.4 37.128C1176.32 33.96 1174.07 32.904 1172.05 32.904C1169.53 32.904 1167.78 34.68 1167.42 37.128H1176.4ZM1188.56 40.104L1189.64 36.864L1186.88 34.848H1190.29L1191.34 31.632L1192.4 34.848H1195.81L1193.02 36.864L1194.13 40.104L1191.34 38.088L1188.56 40.104ZM1205.46 45V31.752H1207.07V45H1205.46ZM1206.3 28.392C1205.51 28.392 1204.94 27.792 1204.94 27.024C1204.94 26.304 1205.51 25.704 1206.3 25.704C1207.05 25.704 1207.62 26.304 1207.62 27.024C1207.62 27.792 1207.05 28.392 1206.3 28.392ZM1211.35 45V31.752H1212.91C1212.91 32.616 1212.91 33.456 1212.57 34.632H1212.86C1214.01 32.208 1215.74 31.368 1217.63 31.368C1219.99 31.368 1222.46 32.688 1222.46 36.696V45H1220.85V37.416C1220.85 34.104 1219.15 32.856 1217.2 32.856C1214.49 32.856 1212.95 35.256 1212.95 37.608V45H1211.35ZM1232.1 45.408C1228.24 45.408 1225.5 42.576 1225.5 38.4C1225.5 34.2 1228.24 31.368 1232.1 31.368C1234.45 31.368 1236.76 32.424 1237.81 35.136L1236.25 35.736C1235.61 33.936 1234.02 32.856 1232.03 32.856C1229.08 32.856 1227.23 35.256 1227.23 38.4C1227.23 41.712 1229.27 43.92 1232.15 43.92C1234.53 43.92 1236.13 42.432 1236.9 40.488L1238.37 41.016C1237.33 43.896 1234.96 45.408 1232.1 45.408ZM1244.33 45.408C1242.07 45.408 1240.13 44.28 1240.13 41.952C1240.13 39.456 1242.36 38.424 1244.9 37.896C1247.38 37.392 1249.1 37.344 1249.1 35.64C1249.1 34.152 1247.78 32.76 1245.74 32.76C1243.97 32.76 1242.65 33.864 1242.14 35.544L1240.58 34.992C1241.38 32.448 1243.66 31.368 1245.86 31.368C1248.26 31.368 1250.78 32.64 1250.78 35.784V40.848C1250.78 43.056 1250.95 43.968 1251.22 45H1249.58C1249.34 44.088 1249.2 43.272 1249.49 41.928H1249.22C1248.38 44.064 1246.75 45.408 1244.33 45.408ZM1244.57 44.088C1247.4 44.088 1249.13 41.472 1249.13 39.696V37.704C1248.41 38.448 1247.78 38.688 1245.98 39.024C1244.47 39.312 1241.88 39.864 1241.88 41.904C1241.88 43.272 1242.98 44.088 1244.57 44.088ZM1254.89 45V31.752H1256.45C1256.45 32.664 1256.55 33.6 1256.29 35.064H1256.55C1257.22 32.64 1258.9 31.368 1260.85 31.368C1261.3 31.368 1261.88 31.44 1262.36 31.632V33.384C1261.88 33.168 1261.13 33.072 1260.73 33.072C1257.89 33.072 1256.5 35.88 1256.5 38.568V45H1254.89ZM1264.74 45V31.752H1266.3C1266.3 32.616 1266.3 33.456 1265.96 34.632H1266.25C1267.4 32.208 1269.13 31.368 1271.03 31.368C1273.38 31.368 1275.85 32.688 1275.85 36.696V45H1274.24V37.416C1274.24 34.104 1272.54 32.856 1270.59 32.856C1267.88 32.856 1266.35 35.256 1266.35 37.608V45H1264.74ZM1285.42 45.408C1281.65 45.408 1278.89 42.6 1278.89 38.4C1278.89 34.272 1281.61 31.368 1285.4 31.368C1287.92 31.368 1291.45 32.712 1291.45 38.016V38.736H1280.62C1280.69 41.952 1282.71 43.92 1285.49 43.92C1287.77 43.92 1289.36 42.432 1290.1 40.584L1291.64 41.136C1290.65 43.824 1288.28 45.408 1285.42 45.408ZM1289.69 37.128C1289.62 33.96 1287.37 32.904 1285.35 32.904C1282.83 32.904 1281.08 34.68 1280.72 37.128H1289.69ZM1285.9 30.024H1284.46L1287.34 25.44H1289.55L1285.9 30.024ZM1300.28 45.408C1296.51 45.408 1293.75 42.6 1293.75 38.4C1293.75 34.272 1296.46 31.368 1300.26 31.368C1302.78 31.368 1306.3 32.712 1306.3 38.016V38.736H1295.48C1295.55 41.952 1297.57 43.92 1300.35 43.92C1302.63 43.92 1304.22 42.432 1304.96 40.584L1306.5 41.136C1305.51 43.824 1303.14 45.408 1300.28 45.408ZM1304.55 37.128C1304.48 33.96 1302.22 32.904 1300.21 32.904C1297.69 32.904 1295.94 34.68 1295.58 37.128H1304.55ZM1316.72 40.104L1317.8 36.864L1315.04 34.848H1318.44L1319.5 31.632L1320.56 34.848H1323.96L1321.18 36.864L1322.28 40.104L1319.5 38.088L1316.72 40.104ZM1339.19 45.408C1335.32 45.408 1332.59 42.576 1332.59 38.4C1332.59 34.2 1335.32 31.368 1339.19 31.368C1341.54 31.368 1343.84 32.424 1344.9 35.136L1343.34 35.736C1342.69 33.936 1341.11 32.856 1339.12 32.856C1336.16 32.856 1334.32 35.256 1334.32 38.4C1334.32 41.712 1336.36 43.92 1339.24 43.92C1341.61 43.92 1343.22 42.432 1343.99 40.488L1345.45 41.016C1344.42 43.896 1342.04 45.408 1339.19 45.408ZM1353.84 45.408C1349.93 45.408 1347.19 42.528 1347.19 38.4C1347.19 34.272 1349.93 31.368 1353.84 31.368C1357.73 31.368 1360.44 34.272 1360.44 38.4C1360.44 42.528 1357.73 45.408 1353.84 45.408ZM1353.84 43.92C1356.74 43.92 1358.73 41.64 1358.73 38.4C1358.73 35.16 1356.74 32.856 1353.84 32.856C1350.93 32.856 1348.92 35.16 1348.92 38.4C1348.92 41.64 1350.93 43.92 1353.84 43.92ZM1363.69 45V25.8H1365.3V45H1363.69ZM1369.57 45V25.8H1371.18V45H1369.57ZM1378.65 45.408C1376.39 45.408 1374.45 44.28 1374.45 41.952C1374.45 39.456 1376.68 38.424 1379.22 37.896C1381.7 37.392 1383.42 37.344 1383.42 35.64C1383.42 34.152 1382.1 32.76 1380.06 32.76C1378.29 32.76 1376.97 33.864 1376.46 35.544L1374.9 34.992C1375.7 32.448 1377.98 31.368 1380.18 31.368C1382.58 31.368 1385.1 32.64 1385.1 35.784V40.848C1385.1 43.056 1385.27 43.968 1385.54 45H1383.9C1383.66 44.088 1383.52 43.272 1383.81 41.928H1383.54C1382.7 44.064 1381.07 45.408 1378.65 45.408ZM1378.89 44.088C1381.72 44.088 1383.45 41.472 1383.45 39.696V37.704C1382.73 38.448 1382.1 38.688 1380.3 39.024C1378.79 39.312 1376.2 39.864 1376.2 41.904C1376.2 43.272 1377.3 44.088 1378.89 44.088ZM1395.89 45.408C1393.7 45.408 1391.83 44.28 1390.82 42.024H1390.56C1390.85 43.224 1390.77 44.112 1390.77 45H1389.21V25.8H1390.82C1390.82 28.656 1390.92 31.512 1390.63 34.968H1390.92C1392.02 32.376 1393.92 31.368 1395.93 31.368C1399.44 31.368 1402.03 34.296 1402.03 38.376C1402.03 42.576 1399.32 45.408 1395.89 45.408ZM1395.62 43.92C1398.33 43.92 1400.3 41.568 1400.3 38.376C1400.3 35.184 1398.31 32.856 1395.62 32.856C1392.98 32.856 1390.82 35.136 1390.82 38.4C1390.82 41.688 1393.01 43.92 1395.62 43.92ZM1410.88 45.408C1406.97 45.408 1404.24 42.528 1404.24 38.4C1404.24 34.272 1406.97 31.368 1410.88 31.368C1414.77 31.368 1417.48 34.272 1417.48 38.4C1417.48 42.528 1414.77 45.408 1410.88 45.408ZM1410.88 43.92C1413.79 43.92 1415.78 41.64 1415.78 38.4C1415.78 35.16 1413.79 32.856 1410.88 32.856C1407.98 32.856 1405.96 35.16 1405.96 38.4C1405.96 41.64 1407.98 43.92 1410.88 43.92ZM1420.74 45V31.752H1422.3C1422.3 32.664 1422.39 33.6 1422.13 35.064H1422.39C1423.07 32.64 1424.75 31.368 1426.69 31.368C1427.15 31.368 1427.72 31.44 1428.2 31.632V33.384C1427.72 33.168 1426.98 33.072 1426.57 33.072C1423.74 33.072 1422.35 35.88 1422.35 38.568V45H1420.74ZM1433.35 45.408C1431.1 45.408 1429.15 44.28 1429.15 41.952C1429.15 39.456 1431.38 38.424 1433.93 37.896C1436.4 37.392 1438.13 37.344 1438.13 35.64C1438.13 34.152 1436.81 32.76 1434.77 32.76C1432.99 32.76 1431.67 33.864 1431.17 35.544L1429.61 34.992C1430.4 32.448 1432.68 31.368 1434.89 31.368C1437.29 31.368 1439.81 32.64 1439.81 35.784V40.848C1439.81 43.056 1439.98 43.968 1440.24 45H1438.61C1438.37 44.088 1438.22 43.272 1438.51 41.928H1438.25C1437.41 44.064 1435.78 45.408 1433.35 45.408ZM1433.59 44.088C1436.42 44.088 1438.15 41.472 1438.15 39.696V37.704C1437.43 38.448 1436.81 38.688 1435.01 39.024C1433.5 39.312 1430.9 39.864 1430.9 41.904C1430.9 43.272 1432.01 44.088 1433.59 44.088ZM1447.79 45.408C1444.55 45.408 1444.55 42.552 1444.55 41.016C1444.55 38.424 1444.55 35.832 1444.83 32.928C1443.66 33.192 1442.79 33.192 1441.91 33.192V31.752C1442.79 31.752 1443.66 31.752 1444.83 32.016C1444.55 30.432 1444.55 29.112 1444.55 27.816H1446.18C1446.18 29.112 1446.18 30.432 1445.89 32.016C1447.55 31.752 1448.87 31.752 1450.21 31.752V33.192C1448.87 33.192 1447.55 33.192 1445.89 32.928C1446.18 35.664 1446.18 38.112 1446.18 40.56C1446.18 42.048 1446.18 43.944 1448.05 43.944C1448.65 43.944 1449.39 43.776 1450.21 43.224V44.76C1449.54 45.192 1448.63 45.408 1447.79 45.408ZM1452.92 45V31.752H1454.53V45H1452.92ZM1453.76 28.392C1452.97 28.392 1452.39 27.792 1452.39 27.024C1452.39 26.304 1452.97 25.704 1453.76 25.704C1454.5 25.704 1455.08 26.304 1455.08 27.024C1455.08 27.792 1454.5 28.392 1453.76 28.392ZM1462.3 45L1457.05 31.752H1458.8C1460.29 35.544 1461.7 39.24 1463.05 43.392H1463.36C1464.68 39.24 1466.1 35.52 1467.56 31.752H1469.29L1464.06 45H1462.3ZM1477.14 45.408C1473.37 45.408 1470.61 42.6 1470.61 38.4C1470.61 34.272 1473.32 31.368 1477.12 31.368C1479.64 31.368 1483.16 32.712 1483.16 38.016V38.736H1472.34C1472.41 41.952 1474.43 43.92 1477.21 43.92C1479.49 43.92 1481.08 42.432 1481.82 40.584L1483.36 41.136C1482.37 43.824 1480 45.408 1477.14 45.408ZM1481.41 37.128C1481.34 33.96 1479.08 32.904 1477.07 32.904C1474.55 32.904 1472.8 34.68 1472.44 37.128H1481.41ZM1493.58 40.104L1494.66 36.864L1491.9 34.848H1495.3L1496.36 31.632L1497.42 34.848H1500.82L1498.04 36.864L1499.14 40.104L1496.36 38.088L1493.58 40.104Z" fill="white"/>
</svg>
