<svg width="49" height="31" viewBox="0 0 49 31" fill="none" xmlns="http://www.w3.org/2000/svg">
<path d="M19.7754 13.8591C19.7754 13.8591 24.4125 13.5153 24.4125 8.0834C24.4125 2.65107 20.6187 0 15.8132 0H6.9675H6.70821H0V30.3566H6.70821H6.9675H15.8132C15.8132 30.3566 25.4666 30.6612 25.4666 21.3967C25.4666 21.3967 25.8874 13.8591 19.7754 13.8591ZM14.675 5.39545H15.8132C15.8132 5.39545 17.9627 5.39545 17.9627 8.55392C17.9627 11.7119 16.6986 12.1699 15.2647 12.1699H6.9675V5.39545H14.675ZM15.3663 24.9611H6.9675V16.8487H15.8132C15.8132 16.8487 19.0169 16.8068 19.0169 21.0178C19.0169 24.5684 16.624 24.9343 15.3663 24.9611ZM38.341 7.72352C26.6546 7.72352 26.6649 19.3873 26.6649 19.3873C26.6649 19.3873 25.8631 30.9914 38.341 30.9914C38.341 30.9914 48.7392 31.5848 48.7392 22.9191H43.3917C43.3917 22.9191 43.57 26.1825 38.5195 26.1825C38.5195 26.1825 33.171 26.5405 33.171 20.9011H48.9175C48.9175 20.9011 50.6406 7.72352 38.341 7.72352ZM33.1122 16.8487C33.1122 16.8487 33.7651 12.1699 38.4598 12.1699C43.1536 12.1699 43.0948 16.8487 43.0948 16.8487H33.1122ZM44.3405 5.52649H31.8029V1.7883H44.3405V5.52649Z" fill="white"/>
</svg>
